<svg width="56" height="48" viewBox="0 0 56 48" fill="none" xmlns="http://www.w3.org/2000/svg">
<rect x="0.5" y="0.5" width="55" height="47" fill="#7C0086"/>
<rect x="0.5" y="0.5" width="55" height="47" stroke="white"/>
<path d="M36 14H20.01C18.91 14 18.01 14.9 18.01 16L18 34L22 30H36C37.1 30 38 29.1 38 28V16C38 14.9 37.1 14 36 14ZM36 28H21.17L20 29.17V16H36V28ZM28 22C29.1 22 30 21.1 30 20C30 18.9 29.1 18 28 18C26.9 18 26 18.9 26 20C26 21.1 26.9 22 28 22ZM32 25.43C32 24.62 31.52 23.9 30.78 23.58C29.93 23.21 28.99 23 28 23C27.01 23 26.07 23.21 25.22 23.58C24.48 23.9 24 24.62 24 25.43V26H32V25.43Z" fill="white"/>
</svg>
