<svg width="16" height="16" viewBox="0 0 16 16" fill="none" xmlns="http://www.w3.org/2000/svg">
<path d="M12.26 10.04C11.14 9.46665 9.68669 8.99998 8.00002 8.99998C6.31335 8.99998 4.86002 9.46665 3.74002 10.04C3.07335 10.38 2.66669 11.0666 2.66669 11.8133V13.6666H13.3334V11.8133C13.3334 11.0666 12.9267 10.38 12.26 10.04ZM12 12.3333H4.00002V11.8133C4.00002 11.56 4.13335 11.3333 4.34669 11.2266C5.14002 10.82 6.42002 10.3333 8.00002 10.3333C9.58002 10.3333 10.86 10.82 11.6534 11.2266C11.8667 11.3333 12 11.56 12 11.8133V12.3333Z" fill="#D1D9CF"/>
<path d="M8.00002 8.33331C9.47335 8.33331 10.6667 7.13998 10.6667 5.66665C10.6667 4.75331 10.6667 3.33331 10.6667 3.33331C10.6667 2.77998 10.22 2.33331 9.66669 2.33331C9.32002 2.33331 9.01335 2.51331 8.83335 2.77998C8.65335 2.51331 8.34669 2.33331 8.00002 2.33331C7.65335 2.33331 7.34669 2.51331 7.16669 2.77998C6.98669 2.51331 6.68002 2.33331 6.33335 2.33331C5.78002 2.33331 5.33335 2.77998 5.33335 3.33331C5.33335 3.33331 5.33335 4.74665 5.33335 5.66665C5.33335 7.13998 6.52669 8.33331 8.00002 8.33331ZM6.66669 3.99998H9.33335V5.66665C9.33335 6.39998 8.73335 6.99998 8.00002 6.99998C7.26669 6.99998 6.66669 6.39998 6.66669 5.66665V3.99998Z" fill="#D1D9CF"/>
</svg>
