<svg width="7" height="7" viewBox="0 0 7 7" fill="none" xmlns="http://www.w3.org/2000/svg">
<mask id="path-1-inside-1_3_57" fill="white">
<path fill-rule="evenodd" clip-rule="evenodd" d="M1.80116 1.78926C2.48307 1.19772 3.55792 0.847229 5.13645 0.847229H6.5302C6.59924 0.847229 6.6552 0.903193 6.6552 0.972229V1.66667V1.67385L6.655 1.67384C6.56717 3.20419 6.14598 4.27992 5.45342 4.97275C4.75965 5.66679 3.81193 5.95834 2.71076 5.95834H1.66423C1.65225 5.95834 1.64045 5.95662 1.62915 5.95332C1.54272 6.24718 1.4827 6.55943 1.4461 6.88881C1.43847 6.95742 1.37667 7.00687 1.30806 6.99924C1.23945 6.99162 1.19 6.92982 1.19763 6.8612C1.2406 6.47441 1.31512 6.10672 1.4268 5.76127C0.845321 5.08535 0.844788 4.42802 0.844788 4.09723L0.844788 4.09688C0.847289 3.20359 1.11618 2.38346 1.80116 1.78926ZM1.71103 5.70247C1.81693 5.40854 1.95224 5.13482 2.12031 4.88271C2.49656 4.31835 3.04143 3.85557 3.80319 3.51701C3.86627 3.48897 3.89468 3.4151 3.86665 3.35202C3.83861 3.28893 3.76474 3.26052 3.70165 3.28856C2.90091 3.64444 2.31731 4.13653 1.9123 4.74404C1.75759 4.9761 1.62959 5.22402 1.52556 5.48626C1.09479 4.92114 1.09479 4.39151 1.09479 4.09818V4.0974C1.09718 3.25465 1.34913 2.51235 1.96498 1.97811C2.58393 1.44118 3.58999 1.09723 5.13645 1.09723H6.4052V1.66308C6.31898 3.15576 5.91011 4.16226 5.27661 4.79601C4.64381 5.42905 3.76862 5.70834 2.71076 5.70834H1.71667C1.71479 5.70638 1.71291 5.70443 1.71103 5.70247Z"/>
</mask>
<path fill-rule="evenodd" clip-rule="evenodd" d="M1.80116 1.78926C2.48307 1.19772 3.55792 0.847229 5.13645 0.847229H6.5302C6.59924 0.847229 6.6552 0.903193 6.6552 0.972229V1.66667V1.67385L6.655 1.67384C6.56717 3.20419 6.14598 4.27992 5.45342 4.97275C4.75965 5.66679 3.81193 5.95834 2.71076 5.95834H1.66423C1.65225 5.95834 1.64045 5.95662 1.62915 5.95332C1.54272 6.24718 1.4827 6.55943 1.4461 6.88881C1.43847 6.95742 1.37667 7.00687 1.30806 6.99924C1.23945 6.99162 1.19 6.92982 1.19763 6.8612C1.2406 6.47441 1.31512 6.10672 1.4268 5.76127C0.845321 5.08535 0.844788 4.42802 0.844788 4.09723L0.844788 4.09688C0.847289 3.20359 1.11618 2.38346 1.80116 1.78926ZM1.71103 5.70247C1.81693 5.40854 1.95224 5.13482 2.12031 4.88271C2.49656 4.31835 3.04143 3.85557 3.80319 3.51701C3.86627 3.48897 3.89468 3.4151 3.86665 3.35202C3.83861 3.28893 3.76474 3.26052 3.70165 3.28856C2.90091 3.64444 2.31731 4.13653 1.9123 4.74404C1.75759 4.9761 1.62959 5.22402 1.52556 5.48626C1.09479 4.92114 1.09479 4.39151 1.09479 4.09818V4.0974C1.09718 3.25465 1.34913 2.51235 1.96498 1.97811C2.58393 1.44118 3.58999 1.09723 5.13645 1.09723H6.4052V1.66308C6.31898 3.15576 5.91011 4.16226 5.27661 4.79601C4.64381 5.42905 3.76862 5.70834 2.71076 5.70834H1.71667C1.71479 5.70638 1.71291 5.70443 1.71103 5.70247Z" fill="#748C70"/>
<path d="M1.80116 1.78926L1.63734 1.60042L1.63734 1.60042L1.80116 1.78926ZM6.6552 1.67385L6.64084 1.92343L6.9052 1.93865V1.67385H6.6552ZM6.655 1.67384L6.66937 1.42425L6.41974 1.40988L6.40541 1.65951L6.655 1.67384ZM5.45342 4.97275L5.27661 4.79601L5.27661 4.79601L5.45342 4.97275ZM1.62915 5.95332L1.69932 5.71336L1.45974 5.64331L1.38931 5.88277L1.62915 5.95332ZM1.4461 6.88881L1.69457 6.91642L1.69457 6.91642L1.4461 6.88881ZM1.19763 6.8612L1.4461 6.88881L1.4461 6.88881L1.19763 6.8612ZM1.4268 5.76127L1.66468 5.83818L1.70786 5.70463L1.61632 5.59823L1.4268 5.76127ZM0.844788 4.09723L0.594788 4.09688V4.09723H0.844788ZM0.844788 4.09688L0.594789 4.09618L0.594788 4.09653L0.844788 4.09688ZM1.71103 5.70247L1.47583 5.61773L1.42331 5.76352L1.53051 5.87541L1.71103 5.70247ZM2.12031 4.88271L1.9123 4.74404L1.9123 4.74404L2.12031 4.88271ZM3.80319 3.51701L3.90472 3.74546L3.90472 3.74546L3.80319 3.51701ZM3.70165 3.28856L3.60012 3.06011L3.60012 3.06011L3.70165 3.28856ZM1.9123 4.74404L1.70429 4.60536L1.70429 4.60536L1.9123 4.74404ZM1.52556 5.48626L1.32674 5.63781L1.59486 5.98954L1.75795 5.57844L1.52556 5.48626ZM1.09479 4.09818L1.34479 4.09818V4.09818H1.09479ZM1.09479 4.0974L0.844788 4.09669V4.0974H1.09479ZM1.96498 1.97811L1.80116 1.78926L1.80116 1.78926L1.96498 1.97811ZM6.4052 1.09723H6.6552V0.847229H6.4052V1.09723ZM6.4052 1.66308L6.65479 1.6775L6.6552 1.6703V1.66308H6.4052ZM5.27661 4.79601L5.45342 4.97275L5.45342 4.97275L5.27661 4.79601ZM1.71667 5.70834L1.53667 5.88183L1.61041 5.95834H1.71667V5.70834ZM5.13645 0.597229C3.52587 0.597229 2.38223 0.954245 1.63734 1.60042L1.96498 1.97811C2.58392 1.44119 3.58997 1.09723 5.13645 1.09723V0.597229ZM6.5302 0.597229H5.13645V1.09723H6.5302V0.597229ZM6.9052 0.972229C6.9052 0.765123 6.73731 0.597229 6.5302 0.597229V1.09723C6.46117 1.09723 6.4052 1.04126 6.4052 0.972229H6.9052ZM6.9052 1.66667V0.972229H6.4052V1.66667H6.9052ZM6.9052 1.67385V1.66667H6.4052V1.67385H6.9052ZM6.64063 1.92342L6.64084 1.92343L6.66957 1.42426L6.66937 1.42425L6.64063 1.92342ZM5.63023 5.14949C6.38135 4.39808 6.81471 3.25421 6.90459 1.68816L6.40541 1.65951C6.31963 3.15418 5.9106 4.16177 5.27661 4.79601L5.63023 5.14949ZM2.71076 6.20834C3.8552 6.20834 4.87547 5.90455 5.63023 5.14949L5.27661 4.79601C4.64383 5.42903 3.76866 5.70834 2.71076 5.70834V6.20834ZM1.66423 6.20834H2.71076V5.70834H1.66423V6.20834ZM1.55899 6.19327C1.59288 6.20318 1.6283 6.20834 1.66423 6.20834V5.70834C1.6762 5.70834 1.68802 5.71006 1.69932 5.71336L1.55899 6.19327ZM1.69457 6.91642C1.72978 6.59953 1.78723 6.30185 1.86899 6.02386L1.38931 5.88277C1.2982 6.19252 1.23561 6.51934 1.19763 6.8612L1.69457 6.91642ZM1.28045 7.24771C1.48629 7.27058 1.6717 7.12226 1.69457 6.91642L1.19763 6.8612C1.20525 6.79259 1.26705 6.74315 1.33567 6.75077L1.28045 7.24771ZM0.949157 6.83359C0.926285 7.03943 1.07461 7.22484 1.28045 7.24771L1.33567 6.75077C1.40428 6.75839 1.45372 6.8202 1.4461 6.88881L0.949157 6.83359ZM1.18893 5.68437C1.0713 6.04819 0.993701 6.43269 0.949157 6.83359L1.4461 6.88881C1.48751 6.51613 1.55894 6.16525 1.66468 5.83818L1.18893 5.68437ZM0.594788 4.09723C0.594788 4.44333 0.595211 5.17796 1.23728 5.92431L1.61632 5.59823C1.09543 4.99274 1.09479 4.41271 1.09479 4.09723H0.594788ZM0.594788 4.09653L0.594788 4.09688L1.09479 4.09758L1.09479 4.09723L0.594788 4.09653ZM1.63734 1.60042C0.883244 2.25458 0.597431 3.1525 0.594789 4.09618L1.09479 4.09758C1.09715 3.25469 1.34912 2.51235 1.96498 1.97811L1.63734 1.60042ZM1.94624 5.78721C2.04585 5.51073 2.17235 5.25535 2.32833 5.02139L1.9123 4.74404C1.73214 5.01428 1.58802 5.30635 1.47583 5.61773L1.94624 5.78721ZM2.32833 5.02139C2.67581 4.50016 3.18195 4.06669 3.90472 3.74546L3.70165 3.28856C2.9009 3.64445 2.31731 4.13653 1.9123 4.74404L2.32833 5.02139ZM3.90472 3.74546C4.09398 3.66135 4.17921 3.43974 4.0951 3.25048L3.63819 3.45355C3.61015 3.39047 3.63857 3.3166 3.70165 3.28856L3.90472 3.74546ZM4.0951 3.25048C4.01098 3.06123 3.78937 2.97599 3.60012 3.06011L3.80319 3.51701C3.7401 3.54505 3.66623 3.51664 3.63819 3.45355L4.0951 3.25048ZM3.60012 3.06011C2.76039 3.43332 2.13806 3.95471 1.70429 4.60536L2.12031 4.88271C2.49656 4.31835 3.04142 3.85557 3.80319 3.51701L3.60012 3.06011ZM1.70429 4.60536C1.53922 4.85296 1.40325 5.11661 1.29318 5.39407L1.75795 5.57844C1.85594 5.33143 1.97596 5.09924 2.12031 4.88271L1.70429 4.60536ZM1.72439 5.3347C1.34564 4.83784 1.34479 4.37922 1.34479 4.09818L0.844788 4.09818C0.844787 4.4038 0.843935 5.00445 1.32674 5.63781L1.72439 5.3347ZM1.34479 4.09818V4.0974H0.844788V4.09818H1.34479ZM1.34479 4.09811C1.34704 3.30589 1.58199 2.6413 2.1288 2.16696L1.80116 1.78926C1.11627 2.38339 0.847326 3.20341 0.844789 4.09669L1.34479 4.09811ZM2.1288 2.16696C2.6848 1.68464 3.62208 1.34723 5.13645 1.34723V0.847229C3.5579 0.847229 2.48306 1.19773 1.80116 1.78926L2.1288 2.16696ZM5.13645 1.34723H6.4052V0.847229H5.13645V1.34723ZM6.1552 1.09723V1.66308H6.6552V1.09723H6.1552ZM6.15562 1.64866C6.07146 3.10559 5.67481 4.04403 5.0998 4.61927L5.45342 4.97275C6.14541 4.28049 6.5665 3.20593 6.65479 1.6775L6.15562 1.64866ZM5.0998 4.61927C4.52795 5.19134 3.72526 5.45834 2.71076 5.45834V5.95834C3.81197 5.95834 4.75967 5.66677 5.45342 4.97275L5.0998 4.61927ZM2.71076 5.45834H1.71667V5.95834H2.71076V5.45834ZM1.89668 5.53485C1.89496 5.53307 1.89326 5.5313 1.89156 5.52953L1.53051 5.87541C1.53256 5.87756 1.53461 5.8797 1.53667 5.88183L1.89668 5.53485Z" fill="white" mask="url(#path-1-inside-1_3_57)"/>
</svg>
