<svg width="16" height="16" viewBox="0 0 16 16" fill="none" xmlns="http://www.w3.org/2000/svg">
<path d="M8.00008 3.98334C10.5267 3.98334 12.7801 5.40334 13.8801 7.65C13.4867 8.46334 12.9334 9.16334 12.2734 9.73L13.2134 10.67C14.1401 9.85 14.8734 8.82334 15.3334 7.65C14.1801 4.72334 11.3334 2.65 8.00008 2.65C7.15341 2.65 6.34008 2.78334 5.57341 3.03L6.67341 4.13C7.10675 4.04334 7.54675 3.98334 8.00008 3.98334ZM7.28675 4.74334L8.66675 6.12334C9.04675 6.29 9.35341 6.59667 9.52008 6.97667L10.9001 8.35667C10.9534 8.13 10.9934 7.89 10.9934 7.64334C11.0001 5.99 9.65341 4.65 8.00008 4.65C7.75341 4.65 7.52008 4.68334 7.28675 4.74334ZM1.34008 2.56334L3.12675 4.35C2.04008 5.20334 1.18008 6.33667 0.666748 7.65C1.82008 10.5767 4.66675 12.65 8.00008 12.65C9.01341 12.65 9.98675 12.4567 10.8801 12.1033L13.1601 14.3833L14.1001 13.4433L2.28008 1.61667L1.34008 2.56334ZM6.34008 7.56334L8.08008 9.30334C8.05341 9.31 8.02675 9.31667 8.00008 9.31667C7.08008 9.31667 6.33341 8.57 6.33341 7.65C6.33341 7.61667 6.34008 7.59667 6.34008 7.56334ZM4.07341 5.29667L5.24008 6.46334C5.08675 6.83 5.00008 7.23 5.00008 7.65C5.00008 9.30334 6.34675 10.65 8.00008 10.65C8.42008 10.65 8.82008 10.5633 9.18008 10.41L9.83341 11.0633C9.24675 11.2233 8.63341 11.3167 8.00008 11.3167C5.47341 11.3167 3.22008 9.89667 2.12008 7.65C2.58675 6.69667 3.26675 5.91 4.07341 5.29667Z" fill="#606060"/>
</svg>
